<svg version="1.0" xmlns="http://www.w3.org/2000/svg"
 width="500.000000pt" height="500.000000pt" viewBox="0 0 500.000000 500.000000"
 preserveAspectRatio="xMidYMid meet">

<g transform="translate(0.000000,500.000000) scale(0.100000,-0.100000)"
fill="#61dafb" stroke="none">
<path d="M1040 2585 l0 -375 40 0 40 0 0 -40 0 -40 130 0 130 0 0 40 0 40 40
0 40 0 0 375 0 375 -45 0 -45 0 -2 -372 -3 -373 -115 0 -115 0 -3 373 -2 372
-45 0 -45 0 0 -375z"/>
<path d="M1620 2670 l0 -40 -40 0 -40 0 0 -210 0 -210 40 0 40 0 0 -40 0 -40
130 0 130 0 0 40 0 40 40 0 40 0 0 45 0 45 -44 0 -45 0 -3 -42 -3 -43 -115 0
-115 0 0 80 0 80 163 3 162 2 0 125 0 125 -40 0 -40 0 0 40 0 40 -130 0 -130
0 0 -40z m250 -130 l0 -80 -120 0 -120 0 0 80 0 80 120 0 120 0 0 -80z"/>
<path d="M2040 2585 l0 -125 40 0 40 0 0 -85 0 -85 45 0 46 0 -3 -77 -3 -78
-82 -3 -83 -3 0 -39 0 -40 85 0 85 0 0 40 0 40 40 0 40 0 0 40 0 40 45 0 45 0
0 125 0 125 40 0 40 0 0 125 0 125 -45 0 -45 0 0 -125 0 -125 -40 0 -40 0 0
-80 0 -80 -40 0 -40 0 0 80 0 80 -40 0 -40 0 0 125 0 125 -45 0 -45 0 0 -125z"/>
<path d="M2620 2670 l0 -40 -40 0 -40 0 0 -45 0 -45 45 0 45 0 0 40 0 40 120
0 120 0 0 -80 0 -80 -125 0 -125 0 0 -40 0 -40 -40 0 -40 0 0 -85 0 -85 40 0
40 0 0 -40 0 -40 170 0 170 0 0 250 0 250 -40 0 -40 0 0 40 0 40 -130 0 -130
0 0 -40z m245 -375 l0 -80 -115 0 -115 0 -3 69 c-2 38 -1 75 2 83 4 11 30 13
118 11 l113 -3 0 -80z"/>
<path d="M3040 2420 l0 -290 45 0 45 0 0 245 0 245 40 0 40 0 0 -245 0 -245
40 0 40 0 0 245 0 245 40 0 40 0 0 -245 0 -245 45 0 45 0 0 250 0 250 -40 0
-40 0 0 40 0 40 -45 0 -45 0 0 -40 0 -40 -40 0 -40 0 0 40 0 40 -85 0 -85 0 0
-290z"/>
<path d="M3620 2670 l0 -40 -40 0 -40 0 0 -45 0 -45 45 0 45 0 0 40 0 40 120
0 120 0 0 -80 0 -80 -125 0 -125 0 0 -40 0 -40 -40 0 -40 0 0 -85 0 -85 40 0
40 0 0 -40 0 -40 170 0 170 0 0 250 0 250 -40 0 -40 0 0 40 0 40 -130 0 -130
0 0 -40z m245 -375 l0 -80 -115 0 -115 0 -3 69 c-2 38 -1 75 2 83 4 11 30 13
118 11 l113 -3 0 -80z"/>
</g>
</svg>